<svg width="250" height="250" viewBox="0 0 250 250" version="1.1" xmlns="http://www.w3.org/2000/svg" id="h-o-l-ds" style="
"><defs><pattern xmlns="http://www.w3.org/2000/svg" id="g34r76i4d" patternUnits="userSpaceOnUse" width="15" height="15"><line stroke="#cccccc" x1="7.5" y1="0" x2="7.5" y2="15"></line><line stroke="#cccccc" x1="0" y1="7.5" x2="15" y2="7.5"></line></pattern></defs><rect xmlns="http://www.w3.org/2000/svg" width="100%" height="100%" fill="WHITE" id="g34r76i4d_r"></rect>&gt;&gt;&gt;&gt;&gt;&gt;&gt;&gt;<circle class="Rang" cx="125" cy="125" r="123" fill="none" stroke="#000000" stroke-width="2" id="Rang0" layer="0"></circle><g font-size="18" font-style="normal" font-family="Arial" fill="#000000" stroke="none" font-weight="bold" in="0" rad="110" cut="15" len="333" id="RangText1" layer="1"><text transform="translate(148.81,36.13) rotate(19.37)"><tspan>Q</tspan></text><text transform="translate(162.34,40.92) rotate(27.99)"><tspan>U</tspan></text><text transform="translate(174.10,47.20) rotate(36.31)"><tspan>A</tspan></text><text transform="translate(184.83,55.11) rotate(44.62)"><tspan>N</tspan></text><text transform="translate(194.31,64.50) rotate(52.31)"><tspan>Z</tspan></text><text transform="translate(201.23,73.49) rotate(60.00)"><tspan>H</tspan></text><text transform="translate(207.87,85.05) rotate(68.63)"><tspan>O</tspan></text><text transform="translate(213.08,98.42) rotate(77.26)"><tspan>U</tspan></text><text transform="translate(215.99,111.43) rotate(83.39)"><tspan> </tspan></text><text transform="translate(216.71,117.73) rotate(88.89)"><tspan>L</tspan></text><text transform="translate(216.91,129.07) rotate(94.09)"><tspan>I</tspan></text><text transform="translate(216.52,134.39) rotate(99.91)"><tspan>H</tspan></text><text transform="translate(214.20,147.53) rotate(107.92)"><tspan>E</tspan></text><text transform="translate(210.38,159.27) rotate(115.92)"><tspan>N</tspan></text><text transform="translate(204.53,171.25) rotate(124.55)"><tspan>G</tspan></text><text transform="translate(196.37,183.05) rotate(130.99)"><tspan> </tspan></text><text transform="translate(192.20,187.83) rotate(137.44)"><tspan>G</tspan></text><text transform="translate(181.62,197.51) rotate(146.07)"><tspan>A</tspan></text><text transform="translate(170.54,204.94) rotate(154.38)"><tspan>R</tspan></text><text transform="translate(158.50,210.68) rotate(163.32)"><tspan>M</tspan></text><text transform="translate(143.81,215.06) rotate(171.95)"><tspan>E</tspan></text><text transform="translate(131.58,216.76) rotate(179.95)"><tspan>N</tspan></text><text transform="translate(118.24,216.75) rotate(187.64)"><tspan>T</tspan></text><text transform="translate(107.01,215.22) rotate(193.15)"><tspan> </tspan></text><text transform="translate(100.84,213.77) rotate(199.90)"><tspan>M</tspan></text><text transform="translate(86.43,208.52) rotate(208.84)"><tspan>A</tspan></text><text transform="translate(74.76,202.07) rotate(217.15)"><tspan>N</tspan></text><text transform="translate(64.14,194.00) rotate(225.47)"><tspan>U</tspan></text><text transform="translate(54.81,184.47) rotate(233.16)"><tspan>F</tspan></text><text transform="translate(48.02,175.38) rotate(240.85)"><tspan>A</tspan></text><text transform="translate(41.55,163.72) rotate(249.16)"><tspan>C</tspan></text><text transform="translate(36.82,151.25) rotate(256.85)"><tspan>T</tspan></text><text transform="translate(34.27,140.20) rotate(264.54)"><tspan>U</tspan></text><text transform="translate(33.02,126.93) rotate(272.85)"><tspan>R</tspan></text><text transform="translate(33.71,113.61) rotate(278.67)"><tspan>I</tspan></text><text transform="translate(34.52,108.33) rotate(284.49)"><tspan>N</tspan></text><text transform="translate(37.88,95.42) rotate(293.12)"><tspan>G</tspan></text><text transform="translate(43.54,82.24) rotate(299.56)"><tspan> </tspan></text><text transform="translate(46.68,76.73) rotate(305.70)"><tspan>C</tspan></text><text transform="translate(54.48,65.92) rotate(314.32)"><tspan>O</tspan></text><text transform="translate(64.52,55.67) rotate(320.46)"><tspan>.</tspan></text><text transform="translate(68.65,52.28) rotate(323.78)"><tspan>,</tspan></text><text transform="translate(72.96,49.13) rotate(328.98)"><tspan>L</tspan></text><text transform="translate(82.69,43.31) rotate(336.05)"><tspan>T</tspan></text><text transform="translate(93.06,38.72) rotate(343.74)"><tspan>D</tspan></text></g><circle class="Rang" cx="125" cy="125" r="83" fill="none" stroke="#000000" stroke-width="2" stroke-dasharray="0" id="Rang2" layer="2"></circle><circle class="Rang" cx="125" cy="125" r="116" fill="none" stroke="#000000" stroke-width="3" stroke-dasharray="0" id="Rang5" layer="5"></circle><g id="RangText7" layer="7" font-size="18" font-style="normal" font-family="Arial" fill="#000000" stroke="none" font-weight="bold" in="0" rad="77" cut="20" len="333"><text transform="translate(145.18,69.56) rotate(28.77)"><tspan>泉</tspan></text><text transform="translate(168.67,85.33) rotate(56.52)"><tspan>州</tspan></text><text transform="translate(182.12,110.23) rotate(84.27)"><tspan>力</tspan></text><text transform="translate(182.43,138.52) rotate(112.02)"><tspan>恒</tspan></text><text transform="translate(169.53,163.71) rotate(139.77)"><tspan>服</tspan></text><text transform="translate(146.38,179.99) rotate(167.52)"><tspan>装</tspan></text><text transform="translate(118.32,183.62) rotate(195.27)"><tspan>制</tspan></text><text transform="translate(91.79,173.77) rotate(223.02)"><tspan>造</tspan></text><text transform="translate(72.91,152.70) rotate(250.77)"><tspan>有</tspan></text><text transform="translate(66.00,125.26) rotate(278.52)"><tspan>限</tspan></text><text transform="translate(72.67,97.76) rotate(306.27)"><tspan>公</tspan></text><text transform="translate(91.37,76.52) rotate(334.02)"><tspan>司</tspan></text></g><g class="Img_l" layer="9" id="Img9" x="126" y="118" s="24" al="37" transform="translate(96, 88) rotate(37 30 30) scale(0.24) " load="1">
<path d="m56,237 74-228 74,228L10,96h240"></path>
</g></svg>